HIERARCHY
ROOT Hips
{
	OFFSET 0.000000 88.474243 0.000000
	CHANNELS 6 Xposition Yposition Zposition Zrotation Yrotation Xrotation 
	JOINT Hips_Spine
	{
		OFFSET 0.000000 0.000000 0.000000
		CHANNELS 3 Zrotation Yrotation Xrotation
		JOINT Spine
		{
			OFFSET 0.005100 8.711998 -0.691000
			CHANNELS 3 Zrotation Yrotation Xrotation
			JOINT Spine1
			{
				OFFSET -0.009200 8.660301 -1.275000
				CHANNELS 3 Zrotation Yrotation Xrotation
				JOINT Spine2
				{
					OFFSET 0.006300 9.852501 -1.857000
					CHANNELS 3 Zrotation Yrotation Xrotation
					JOINT Spine2_Neck
					{
						OFFSET 0.000000 0.000000 0.000000
						CHANNELS 3 Zrotation Yrotation Xrotation
						JOINT Neck
						{
							OFFSET 0.016300 11.420799 -0.263300
							CHANNELS 3 Zrotation Yrotation Xrotation
							End Site #name: Head
							{
								OFFSET -0.019200 9.262405 2.362500
							}
						}
					}
					JOINT Spine2_LeftShoulder
					{
						OFFSET 0.000000 0.000000 0.000000
						CHANNELS 3 Zrotation Yrotation Xrotation
						JOINT LeftShoulder
						{
							OFFSET 5.616900 6.732201 -0.345700
							CHANNELS 3 Zrotation Yrotation Xrotation
							JOINT LeftArm
							{
								OFFSET 10.664888 -0.183372 -2.440700
								CHANNELS 3 Zrotation Yrotation Xrotation
								JOINT LeftForeArm
								{
									OFFSET 27.459126 0.000000 0.000000
									CHANNELS 3 Zrotation Yrotation Xrotation
									End Site #name: LeftHand
									{
										OFFSET 21.306858 0.000000 0.000000
									}
								}
							}
						}
					}
					JOINT Spine2_RightShoulder
					{
						OFFSET 0.000000 0.000000 0.000000
						CHANNELS 3 Zrotation Yrotation Xrotation
						JOINT RightShoulder
						{
							OFFSET -5.580300 6.737503 -0.344400
							CHANNELS 3 Zrotation Yrotation Xrotation
							JOINT RightArm
							{
								OFFSET -10.679335 -0.188484 -2.383900
								CHANNELS 3 Zrotation Yrotation Xrotation
								JOINT RightForeArm
								{
									OFFSET -27.503529 0.000000 0.000000
									CHANNELS 3 Zrotation Yrotation Xrotation
									End Site #name: RightHand
									{
										OFFSET -21.306808 0.000000 0.000000
									}
								}
							}
						}
					}
				}
			}
		}
	}
	JOINT Hips_LeftUpLeg
	{
		OFFSET 0.000000 0.000000 0.000000
		CHANNELS 3 Zrotation Yrotation Xrotation
		JOINT LeftUpLeg
		{
			OFFSET 6.857700 -6.739601 0.312100
			CHANNELS 3 Zrotation Yrotation Xrotation
			JOINT LeftLeg
			{
				OFFSET -0.367590 -34.731552 -4.572400
				CHANNELS 3 Zrotation Yrotation Xrotation
				End Site #name: LeftFoot
				{
					OFFSET 0.367590 -34.656704 -6.067400
				}
			}
		}
	}
	JOINT Hips_RightUpLeg
	{
		OFFSET 0.000000 0.000000 0.000000
		CHANNELS 3 Zrotation Yrotation Xrotation
		JOINT RightUpLeg
		{
			OFFSET -6.876100 -6.733299 0.301000
			CHANNELS 3 Zrotation Yrotation Xrotation
			JOINT RightLeg
			{
				OFFSET 0.347353 -34.795158 -4.515900
				CHANNELS 3 Zrotation Yrotation Xrotation
				End Site #name: RightFoot
				{
					OFFSET -0.347353 -34.589367 -6.070300
				}
			}
		}
	}
}
MOTION
Frames: 10
Frame Time: 0.041667
86.705635 13.202424 -3.538042 -142.962262 51.266832 -99.162269 -0.000000 -0.000000 -0.000000 21.881935 -7.213805 -8.222856 5.787332 0.973130 -14.744564 0.000000 0.000000 0.000000 2.200993 1.382062 -0.123789 40.187381 -4.119396 34.720178 -0.821278 10.890929 -5.584154 -76.556674 -30.203143 23.380356 79.646833 3.804199 -166.539400 11.666722 36.031392 8.864880 -5.479033 11.428043 1.916018 -90.070802 49.527227 -72.378455 87.812528 43.113695 5.704247 169.645704 21.735199 -175.461113 -0.000000 -0.000000 -0.000000 56.060361 12.460856 25.364693 25.896481 -21.789580 -78.129002 -0.000000 0.000000 -0.000000 -72.762683 6.398435 -124.995533 -14.894033 -1.196530 69.875944 
89.812057 12.666294 -3.315593 -141.990115 52.581570 -97.951880 -0.000000 -0.000000 -0.000000 23.949634 -6.572286 -8.477518 6.700800 1.379681 -15.177994 0.000000 0.000000 0.000000 2.949611 1.198776 -0.748510 42.291252 -6.342227 36.422095 -0.538428 11.014080 -5.621826 -77.488146 -29.739216 23.536563 82.563076 4.122947 -163.899892 10.858569 33.408179 8.560543 -5.523297 11.749353 1.836213 -91.881373 50.097930 -73.482125 86.897835 42.196304 3.713313 169.076068 16.508587 -174.180537 -0.000000 -0.000000 -0.000000 56.399291 13.443748 22.748189 27.302684 -21.969627 -77.613486 -0.000000 0.000000 -0.000000 -76.076290 9.866733 -123.466399 -15.208558 -1.213072 68.946217 
92.974068 11.993605 -3.020722 -140.330461 54.281576 -96.506988 0.000000 -0.000000 -0.000000 25.917818 -6.022109 -8.659194 7.476373 1.793561 -15.681918 0.000000 0.000000 0.000000 3.688106 1.142073 -1.277974 44.031971 -7.945633 38.492082 -0.276427 11.097819 -5.597656 -77.784625 -29.257973 23.219695 85.420711 3.375320 -161.059299 10.041209 31.791599 8.094597 -5.519897 12.190181 1.693458 -94.555062 50.578506 -75.171007 85.933077 41.656774 1.821921 168.484663 11.443361 -172.575495 -0.000000 -0.000000 -0.000000 56.318822 14.140998 19.415444 29.120032 -21.839757 -77.452064 -0.000000 0.000000 -0.000000 -78.779961 12.568940 -122.826392 -15.152462 -1.097608 68.572702 
96.184952 11.209038 -2.669400 -138.337478 56.286500 -95.334084 0.000000 -0.000000 -0.000000 27.796874 -5.590239 -8.929673 8.151553 2.187395 -16.286333 0.000000 0.000000 0.000000 4.349862 1.202648 -1.726846 45.357589 -9.120393 40.771867 -0.065828 11.157390 -5.647272 -77.754430 -29.123232 23.018687 87.894499 1.986191 -158.124928 9.229939 31.307740 7.522586 -5.519416 12.697653 1.563002 -97.673409 50.879424 -77.246219 84.785868 41.450454 -0.044637 167.835514 7.239633 -170.835327 -0.000000 -0.000000 -0.000000 55.811099 14.633846 15.447046 31.497765 -21.923038 -76.793802 -0.000000 0.000000 -0.000000 -80.993880 13.999228 -123.032876 -14.715409 -0.822391 68.921756 
99.429817 10.341028 -2.280831 -136.785132 58.360270 -94.742035 0.000000 -0.000000 -0.000000 29.592523 -5.307479 -9.297353 8.715167 2.559384 -16.885050 0.000000 0.000000 0.000000 4.912370 1.341430 -2.129053 46.289023 -9.721442 43.213201 0.087489 11.205486 -5.776175 -77.359270 -29.278385 22.913058 90.404092 -0.059777 -155.002114 8.339490 30.723620 6.638312 -5.542350 13.245838 1.387390 -101.126156 50.971647 -79.546852 83.315355 41.275753 -2.258185 167.141459 3.706578 -169.306388 -0.000000 -0.000000 -0.000000 55.613219 16.671246 11.788440 34.287705 -22.342308 -75.848606 -0.000000 0.000000 -0.000000 -82.289534 15.008944 -123.270925 -14.202813 -0.396445 69.541936 
102.688164 9.432591 -1.857175 -135.355325 60.254375 -94.179395 0.000000 -0.000000 -0.000000 31.220733 -5.228438 -9.738195 9.107738 2.900967 -17.501176 0.000000 0.000000 0.000000 5.347690 1.498670 -2.582210 47.011935 -9.941129 45.459005 0.186609 11.267593 -5.992549 -76.868895 -29.673733 22.925838 92.362320 -2.496119 -152.531652 7.376066 30.364799 5.787803 -5.569253 13.775452 1.209380 -104.771724 50.594004 -81.502940 81.571463 40.931357 -5.018057 166.554192 1.552061 -167.847926 -0.000000 -0.000000 -0.000000 55.833685 19.495876 8.235755 37.227848 -22.889386 -74.848482 -0.000000 0.000000 -0.000000 -82.937333 15.547424 -123.407487 -13.670341 0.107912 70.152406 
105.942558 8.540928 -1.407753 -134.022439 61.817029 -93.602797 0.000000 -0.000000 -0.000000 32.566694 -5.408369 -10.337723 9.236398 3.199014 -18.151151 0.000000 0.000000 0.000000 5.558661 1.692329 -3.112117 47.611170 -9.867367 47.258903 0.206163 11.334882 -6.235371 -76.612566 -30.136977 23.179607 93.479195 -4.763308 -149.993617 6.478161 30.231885 5.168953 -5.631398 14.283337 1.022172 -108.376293 50.109556 -83.256240 79.567856 40.514060 -8.190860 166.209978 0.547897 -166.565463 -0.000000 -0.000000 -0.000000 55.561839 21.834758 4.016164 40.071141 -23.623458 -73.925701 -0.000000 0.000000 -0.000000 -82.879538 15.509215 -123.470702 -13.220661 0.652344 70.397138 
109.182289 7.718519 -0.928234 -132.507328 63.263096 -93.092883 0.000000 -0.000000 -0.000000 33.458512 -5.819061 -11.255839 9.022611 3.459936 -18.839557 0.000000 0.000000 0.000000 5.499675 1.892383 -3.729276 48.134672 -9.401740 48.684606 0.112543 11.390433 -6.547097 -76.360009 -30.784364 23.679675 94.192991 -7.482404 -147.425567 5.690612 30.578906 4.462834 -5.823943 14.759878 0.741818 -112.289544 49.368347 -84.858568 77.480224 40.228024 -11.671733 166.071520 0.785072 -165.389748 -0.000000 -0.000000 -0.000000 54.683433 22.998581 -0.767457 42.702769 -24.423554 -73.246870 -0.000000 0.000000 -0.000000 -82.518782 14.962937 -123.129806 -12.802978 1.200817 70.299671 
112.416512 7.046206 -0.421414 -131.281142 64.728297 -93.163813 0.000000 -0.000000 -0.000000 34.075691 -6.511072 -12.330240 8.437614 3.678669 -19.613712 0.000000 0.000000 0.000000 5.073013 2.093449 -4.364884 48.591246 -8.570792 50.495944 -0.096618 11.440966 -6.844658 -75.739743 -31.663471 24.169720 94.114447 -10.435990 -145.191286 5.069644 31.744795 3.708198 -6.140651 15.175220 0.267781 -116.926598 48.134412 -86.419482 75.255503 39.635725 -14.771027 166.303172 1.581603 -164.546133 -0.000000 -0.000000 -0.000000 53.340836 22.639607 -5.432475 44.973822 -25.251715 -72.937471 -0.000000 0.000000 -0.000000 -82.681844 13.795622 -123.220957 -12.597846 1.701803 70.388639 
115.672050 6.530933 0.163235 -130.570652 66.231958 -93.652418 0.000000 -0.000000 -0.000000 34.536021 -7.475567 -13.155407 7.497472 3.848530 -20.715758 0.000000 0.000000 0.000000 4.355929 2.287444 -4.966571 49.079837 -7.345728 53.221563 -0.409159 11.490608 -7.061431 -74.796051 -32.608167 24.626295 93.759689 -13.342455 -143.836552 4.592796 33.062070 3.025415 -6.562627 15.542178 -0.282957 -121.608396 46.998295 -87.806326 72.325902 38.716226 -17.715575 166.720672 2.370697 -164.012783 -0.000000 -0.000000 -0.000000 51.726692 22.034954 -10.523885 46.833786 -26.098353 -72.826761 -0.000000 0.000000 -0.000000 -82.931050 12.146680 -123.917751 -12.254021 2.224833 71.404584 
